eac-font.ufo
<glyph name="BA.init" format="2">
	<advance width="863" height="1750"/>
	<note>
		u182A_1820.ini
	</note>
	<outline>
		<contour>
			<point x="271" y="40" type="curve" smooth="yes"/>
			<point x="340" y="40"/>
			<point x="396" y="81"/>
			<point x="428" y="152" type="curve" smooth="yes"/>
			<point x="443" y="187"/>
			<point x="451" y="228"/>
			<point x="451" y="275" type="curve" smooth="yes"/>
			<point x="451" y="315"/>
			<point x="439" y="412"/>
			<point x="428" y="444" type="curve"/>
			<point x="124" y="444" type="line"/>
			<point x="125" y="544"/>
			<point x="162" y="622"/>
			<point x="228" y="666" type="curve" smooth="yes"/>
			<point x="261" y="688"/>
			<point x="303" y="699"/>
			<point x="352" y="699" type="curve" smooth="yes"/>
			<point x="492" y="699"/>
			<point x="563" y="589"/>
			<point x="579" y="364" type="curve" smooth="yes"/>
			<point x="598" y="96" type="line"/>
			<point x="664" y="96" type="line"/>
			<point x="683" y="364" type="line"/>
			<point x="893" y="364" type="line"/>
			<point x="893" y="444" type="line"/>
			<point x="652" y="444" type="line"/>
			<point x="635" y="577"/>
			<point x="586" y="680"/>
			<point x="506" y="738" type="curve" smooth="yes"/>
			<point x="465" y="767"/>
			<point x="413" y="782"/>
			<point x="352" y="782" type="curve" smooth="yes"/>
			<point x="220" y="782"/>
			<point x="127" y="718"/>
			<point x="80" y="603" type="curve" smooth="yes"/>
			<point x="57" y="547"/>
			<point x="45" y="482"/>
			<point x="45" y="408" type="curve" smooth="yes"/>
			<point x="45" y="163"/>
			<point x="120" y="40"/>
		</contour>
		<contour>
			<point x="264" y="123" type="curve" smooth="yes"/>
			<point x="173" y="123"/>
			<point x="126" y="203"/>
			<point x="124" y="364" type="curve"/>
			<point x="362" y="364" type="line"/>
			<point x="369" y="346"/>
			<point x="372" y="316"/>
			<point x="372" y="275" type="curve" smooth="yes"/>
			<point x="372" y="186"/>
			<point x="335" y="123"/>
		</contour>
	</outline>
</glyph>
<glyph name="BI.medi" format="2">
	<advance width="871" height="1750"/>
	<note>
		u182A_1822.med
	</note>
	<outline>
		<contour>
			<point x="683" y="-67" type="curve"/>
			<point x="756" y="-31" type="line"/>
			<point x="673" y="117"/>
			<point x="623" y="241"/>
			<point x="596" y="364" type="curve"/>
			<point x="901" y="364" type="line"/>
			<point x="901" y="444" type="line"/>
			<point x="581" y="444" type="line"/>
			<point x="554" y="588"/>
			<point x="510" y="688"/>
			<point x="435" y="741" type="curve" smooth="yes"/>
			<point x="396" y="768"/>
			<point x="345" y="782"/>
			<point x="284" y="782" type="curve" smooth="yes"/>
			<point x="196" y="782"/>
			<point x="126" y="749"/>
			<point x="75" y="683" type="curve" smooth="yes"/>
			<point x="24" y="618"/>
			<point x="-1" y="526"/>
			<point x="-1" y="408" type="curve" smooth="yes"/>
			<point x="-1" y="161"/>
			<point x="73" y="40"/>
			<point x="226" y="40" type="curve" smooth="yes"/>
			<point x="297" y="40"/>
			<point x="353" y="82"/>
			<point x="383" y="154" type="curve" smooth="yes"/>
			<point x="398" y="189"/>
			<point x="405" y="230"/>
			<point x="405" y="275" type="curve" smooth="yes"/>
			<point x="405" y="315"/>
			<point x="393" y="412"/>
			<point x="382" y="444" type="curve"/>
			<point x="78" y="444" type="line"/>
			<point x="79" y="543"/>
			<point x="111" y="622"/>
			<point x="171" y="666" type="curve" smooth="yes"/>
			<point x="201" y="688"/>
			<point x="239" y="699"/>
			<point x="284" y="699" type="curve" smooth="yes"/>
			<point x="375" y="699"/>
			<point x="431" y="654"/>
			<point x="467" y="567" type="curve" smooth="yes"/>
			<point x="484" y="525"/>
			<point x="497" y="475"/>
			<point x="506" y="418" type="curve" smooth="yes"/>
			<point x="523" y="324"/>
			<point x="542" y="249"/>
			<point x="563" y="192" type="curve" smooth="yes"/>
			<point x="588" y="126"/>
			<point x="628" y="40"/>
		</contour>
		<contour>
			<point x="218" y="123" type="curve" smooth="yes"/>
			<point x="127" y="123"/>
			<point x="80" y="203"/>
			<point x="78" y="364" type="curve"/>
			<point x="316" y="364" type="line"/>
			<point x="323" y="345"/>
			<point x="326" y="314"/>
			<point x="326" y="271" type="curve" smooth="yes"/>
			<point x="326" y="183"/>
			<point x="286" y="123"/>
		</contour>
	</outline>
</glyph>
<glyph name="BO.medi" format="2">
	<advance width="883" height="1750"/>
	<note>
		u182A_1823.med
	</note>
	<outline>
		<contour>
			<point x="203" y="40" type="curve" smooth="yes"/>
			<point x="268" y="40"/>
			<point x="326" y="74"/>
			<point x="350" y="135" type="curve"/>
			<point x="378" y="72"/>
			<point x="427" y="40"/>
			<point x="492" y="40" type="curve" smooth="yes"/>
			<point x="635" y="40"/>
			<point x="705" y="147"/>
			<point x="706" y="364" type="curve"/>
			<point x="917" y="364" type="line"/>
			<point x="917" y="444" type="line"/>
			<point x="702" y="444" type="line"/>
			<point x="687" y="583"/>
			<point x="625" y="686"/>
			<point x="528" y="741" type="curve" smooth="yes"/>
			<point x="479" y="768"/>
			<point x="423" y="782"/>
			<point x="359" y="782" type="curve" smooth="yes"/>
			<point x="210" y="782"/>
			<point x="100" y="711"/>
			<point x="42" y="588" type="curve" smooth="yes"/>
			<point x="13" y="527"/>
			<point x="-1" y="456"/>
			<point x="-1" y="375" type="curve" smooth="yes"/>
			<point x="-1" y="152"/>
			<point x="63" y="40"/>
		</contour>
		<contour>
			<point x="203" y="123" type="curve" smooth="yes"/>
			<point x="136" y="123"/>
			<point x="100" y="163"/>
			<point x="88" y="239" type="curve" smooth="yes"/>
			<point x="81" y="275"/>
			<point x="78" y="317"/>
			<point x="78" y="364" type="curve"/>
			<point x="313" y="364" type="line"/>
			<point x="313" y="286" type="line" smooth="yes"/>
			<point x="313" y="190"/>
			<point x="275" y="123"/>
		</contour>
		<contour>
			<point x="492" y="123" type="curve" smooth="yes"/>
			<point x="425" y="123"/>
			<point x="392" y="177"/>
			<point x="392" y="286" type="curve" smooth="yes"/>
			<point x="392" y="364" type="line"/>
			<point x="627" y="364" type="line"/>
			<point x="624" y="244"/>
			<point x="609" y="178"/>
			<point x="571" y="147" type="curve" smooth="yes"/>
			<point x="552" y="131"/>
			<point x="525" y="123"/>
		</contour>
		<contour>
			<point x="622" y="444" type="curve"/>
			<point x="81" y="444" type="line"/>
			<point x="100" y="608"/>
			<point x="192" y="699"/>
			<point x="359" y="699" type="curve" smooth="yes"/>
			<point x="459" y="699"/>
			<point x="533" y="656"/>
			<point x="579" y="578" type="curve" smooth="yes"/>
			<point x="601" y="539"/>
			<point x="615" y="495"/>
		</contour>
	</outline>
</glyph>
<glyph name="FI.isol" format="2">
	<advance width="1167" height="1750"/>
	<note>
		u1839_1822
	</note>
	<outline>
		<contour>
			<point x="199" y="-182" type="curve"/>
			<point x="289" y="-182" type="line"/>
			<point x="264" y="-147"/>
			<point x="251" y="-108"/>
			<point x="251" y="-63" type="curve" smooth="yes"/>
			<point x="251" y="-26"/>
			<point x="258" y="8"/>
			<point x="271" y="40" type="curve"/>
			<point x="277" y="40" type="line" smooth="yes"/>
			<point x="342" y="40"/>
			<point x="397" y="82"/>
			<point x="428" y="153" type="curve" smooth="yes"/>
			<point x="443" y="188"/>
			<point x="451" y="228"/>
			<point x="451" y="273" type="curve" smooth="yes"/>
			<point x="451" y="317"/>
			<point x="440" y="412"/>
			<point x="428" y="444" type="curve"/>
			<point x="124" y="444" type="line"/>
			<point x="125" y="543"/>
			<point x="157" y="622"/>
			<point x="217" y="666" type="curve" smooth="yes"/>
			<point x="247" y="688"/>
			<point x="285" y="699"/>
			<point x="330" y="699" type="curve" smooth="yes"/>
			<point x="421" y="699"/>
			<point x="477" y="654"/>
			<point x="513" y="567" type="curve" smooth="yes"/>
			<point x="530" y="525"/>
			<point x="543" y="475"/>
			<point x="552" y="418" type="curve" smooth="yes"/>
			<point x="567" y="328"/>
			<point x="589" y="247"/>
			<point x="616" y="176" type="curve" smooth="yes"/>
			<point x="641" y="111"/>
			<point x="678" y="30"/>
			<point x="729" y="-67" type="curve"/>
			<point x="802" y="-31" type="line"/>
			<point x="719" y="117"/>
			<point x="669" y="241"/>
			<point x="642" y="364" type="curve"/>
			<point x="947" y="364" type="line" smooth="yes"/>
			<point x="1016" y="364"/>
			<point x="1045" y="335"/>
			<point x="1045" y="279" type="curve" smooth="yes"/>
			<point x="1045" y="234"/>
			<point x="1038" y="195"/>
			<point x="1023" y="162" type="curve"/>
			<point x="1097" y="162" type="line"/>
			<point x="1114" y="198"/>
			<point x="1122" y="237"/>
			<point x="1122" y="279" type="curve" smooth="yes"/>
			<point x="1122" y="389"/>
			<point x="1064" y="444"/>
			<point x="947" y="444" type="curve" smooth="yes"/>
			<point x="627" y="444" type="line"/>
			<point x="600" y="588"/>
			<point x="556" y="688"/>
			<point x="481" y="741" type="curve" smooth="yes"/>
			<point x="442" y="768"/>
			<point x="391" y="782"/>
			<point x="330" y="782" type="curve" smooth="yes"/>
			<point x="205" y="782"/>
			<point x="119" y="716"/>
			<point x="76" y="601" type="curve" smooth="yes"/>
			<point x="55" y="544"/>
			<point x="45" y="480"/>
			<point x="45" y="408" type="curve" smooth="yes"/>
			<point x="45" y="202"/>
			<point x="97" y="83"/>
			<point x="201" y="50" type="curve"/>
			<point x="180" y="13"/>
			<point x="169" y="-25"/>
			<point x="169" y="-64" type="curve" smooth="yes"/>
			<point x="169" y="-113"/>
			<point x="179" y="-152"/>
		</contour>
		<contour>
			<point x="264" y="123" type="curve" smooth="yes"/>
			<point x="173" y="123"/>
			<point x="126" y="203"/>
			<point x="124" y="364" type="curve"/>
			<point x="362" y="364" type="line"/>
			<point x="369" y="346"/>
			<point x="372" y="316"/>
			<point x="372" y="275" type="curve" smooth="yes"/>
			<point x="372" y="186"/>
			<point x="335" y="123"/>
		</contour>
	</outline>
</glyph>
<glyph name="GA.fina" format="2">
	<advance width="973" height="1750"/>
	<note>
		u182C_1821.fin
	</note>
	<outline>
		<contour>
			<point x="667" y="-264" type="curve"/>
			<point x="749" y="-264" type="line"/>
			<point x="735" y="-238"/>
			<point x="728" y="-212"/>
			<point x="728" y="-187" type="curve" smooth="yes"/>
			<point x="728" y="-130"/>
			<point x="747" y="-94"/>
			<point x="795" y="-31" type="curve" smooth="yes"/>
			<point x="880" y="77"/>
			<point x="928" y="162"/>
			<point x="928" y="245" type="curve" smooth="yes"/>
			<point x="928" y="374"/>
			<point x="849" y="444"/>
			<point x="697" y="444" type="curve" smooth="yes"/>
			<point x="455" y="444" type="line"/>
			<point x="441" y="565"/>
			<point x="405" y="648"/>
			<point x="348" y="692" type="curve" smooth="yes"/>
			<point x="317" y="715"/>
			<point x="276" y="727"/>
			<point x="226" y="727" type="curve" smooth="yes"/>
			<point x="134" y="727"/>
			<point x="62" y="674"/>
			<point x="25" y="581" type="curve" smooth="yes"/>
			<point x="6" y="535"/>
			<point x="-3" y="481"/>
			<point x="-3" y="418" type="curve" smooth="yes"/>
			<point x="-3" y="299"/>
			<point x="40" y="174"/>
			<point x="126" y="42" type="curve"/>
			<point x="197" y="85" type="line"/>
			<point x="114" y="206"/>
			<point x="76" y="298"/>
			<point x="76" y="417" type="curve" smooth="yes"/>
			<point x="76" y="568"/>
			<point x="131" y="644"/>
			<point x="226" y="644" type="curve" smooth="yes"/>
			<point x="303" y="644"/>
			<point x="343" y="598"/>
			<point x="363" y="510" type="curve" smooth="yes"/>
			<point x="372" y="467"/>
			<point x="378" y="418"/>
			<point x="382" y="361" type="curve" smooth="yes"/>
			<point x="401" y="96" type="line"/>
			<point x="467" y="96" type="line"/>
			<point x="486" y="364" type="line"/>
			<point x="696" y="364" type="line" smooth="yes"/>
			<point x="801" y="364"/>
			<point x="850" y="325"/>
			<point x="850" y="244" type="curve" smooth="yes"/>
			<point x="850" y="180"/>
			<point x="819" y="125"/>
			<point x="743" y="28" type="curve" smooth="yes"/>
			<point x="680" y="-55"/>
			<point x="648" y="-115"/>
			<point x="648" y="-187" type="curve" smooth="yes"/>
			<point x="648" y="-217"/>
			<point x="654" y="-243"/>
		</contour>
	</outline>
</glyph>
<glyph name="GA.isol" format="2">
	<advance width="1021" height="1750"/>
	<note>
		u182C_1821
	</note>
	<outline>
		<contour>
			<point x="715" y="-264" type="curve"/>
			<point x="797" y="-264" type="line"/>
			<point x="783" y="-238"/>
			<point x="776" y="-212"/>
			<point x="776" y="-187" type="curve" smooth="yes"/>
			<point x="776" y="-130"/>
			<point x="795" y="-94"/>
			<point x="843" y="-31" type="curve" smooth="yes"/>
			<point x="928" y="77"/>
			<point x="976" y="162"/>
			<point x="976" y="245" type="curve" smooth="yes"/>
			<point x="976" y="374"/>
			<point x="897" y="444"/>
			<point x="745" y="444" type="curve" smooth="yes"/>
			<point x="503" y="444" type="line"/>
			<point x="489" y="565"/>
			<point x="453" y="648"/>
			<point x="396" y="692" type="curve" smooth="yes"/>
			<point x="365" y="715"/>
			<point x="324" y="727"/>
			<point x="274" y="727" type="curve" smooth="yes"/>
			<point x="182" y="727"/>
			<point x="110" y="674"/>
			<point x="73" y="581" type="curve" smooth="yes"/>
			<point x="54" y="535"/>
			<point x="45" y="481"/>
			<point x="45" y="418" type="curve" smooth="yes"/>
			<point x="45" y="299"/>
			<point x="88" y="174"/>
			<point x="174" y="42" type="curve"/>
			<point x="245" y="85" type="line"/>
			<point x="162" y="206"/>
			<point x="124" y="298"/>
			<point x="124" y="417" type="curve" smooth="yes"/>
			<point x="124" y="568"/>
			<point x="179" y="644"/>
			<point x="274" y="644" type="curve" smooth="yes"/>
			<point x="351" y="644"/>
			<point x="391" y="598"/>
			<point x="411" y="510" type="curve" smooth="yes"/>
			<point x="420" y="467"/>
			<point x="426" y="418"/>
			<point x="430" y="361" type="curve" smooth="yes"/>
			<point x="449" y="96" type="line"/>
			<point x="515" y="96" type="line"/>
			<point x="534" y="364" type="line"/>
			<point x="744" y="364" type="line" smooth="yes"/>
			<point x="849" y="364"/>
			<point x="898" y="325"/>
			<point x="898" y="244" type="curve" smooth="yes"/>
			<point x="898" y="180"/>
			<point x="867" y="125"/>
			<point x="791" y="28" type="curve" smooth="yes"/>
			<point x="728" y="-55"/>
			<point x="696" y="-115"/>
			<point x="696" y="-187" type="curve" smooth="yes"/>
			<point x="696" y="-217"/>
			<point x="702" y="-243"/>
		</contour>
	</outline>
</glyph>
<glyph name="GA.medi" format="2">
	<advance width="666" height="1750"/>
	<note>
		u182C_1821.med
	</note>
	<outline>
		<contour>
			<point x="126" y="42" type="curve"/>
			<point x="197" y="85" type="line"/>
			<point x="114" y="206"/>
			<point x="76" y="298"/>
			<point x="76" y="417" type="curve" smooth="yes"/>
			<point x="76" y="568"/>
			<point x="132" y="644"/>
			<point x="227" y="644" type="curve" smooth="yes"/>
			<point x="304" y="644"/>
			<point x="343" y="598"/>
			<point x="363" y="510" type="curve" smooth="yes"/>
			<point x="372" y="467"/>
			<point x="378" y="418"/>
			<point x="382" y="363" type="curve" smooth="yes"/>
			<point x="401" y="96" type="line"/>
			<point x="467" y="96" type="line"/>
			<point x="486" y="364" type="line"/>
			<point x="696" y="364" type="line"/>
			<point x="696" y="444" type="line"/>
			<point x="455" y="444" type="line"/>
			<point x="441" y="565"/>
			<point x="405" y="648"/>
			<point x="348" y="692" type="curve" smooth="yes"/>
			<point x="317" y="715"/>
			<point x="276" y="727"/>
			<point x="226" y="727" type="curve" smooth="yes"/>
			<point x="134" y="727"/>
			<point x="64" y="674"/>
			<point x="26" y="582" type="curve" smooth="yes"/>
			<point x="7" y="535"/>
			<point x="-3" y="480"/>
			<point x="-3" y="417" type="curve" smooth="yes"/>
			<point x="-3" y="299"/>
			<point x="40" y="174"/>
		</contour>
	</outline>
</glyph>
<glyph name="GW.medi" format="2">
	<advance width="837" height="1750"/>
	<note>
		u182C_1827.med
	</note>
	<outline>
		<contour>
			<point x="689" y="-119" type="curve" smooth="yes"/>
			<point x="728" y="-119"/>
			<point x="756" y="-108"/>
			<point x="771" y="-85" type="curve"/>
			<point x="771" y="6" type="line"/>
			<point x="753" y="-22"/>
			<point x="726" y="-36"/>
			<point x="689" y="-36" type="curve" smooth="yes"/>
			<point x="654" y="-36"/>
			<point x="621" y="-11"/>
			<point x="591" y="41" type="curve" smooth="yes"/>
			<point x="577" y="64"/>
			<point x="564" y="89"/>
			<point x="551" y="117" type="curve" smooth="yes"/>
			<point x="516" y="193"/>
			<point x="493" y="275"/>
			<point x="482" y="364" type="curve"/>
			<point x="867" y="364" type="line"/>
			<point x="867" y="444" type="line"/>
			<point x="473" y="444" type="line"/>
			<point x="457" y="575"/>
			<point x="425" y="667"/>
			<point x="365" y="719" type="curve" smooth="yes"/>
			<point x="333" y="746"/>
			<point x="291" y="760"/>
			<point x="239" y="760" type="curve" smooth="yes"/>
			<point x="135" y="760"/>
			<point x="61" y="697"/>
			<point x="24" y="590" type="curve" smooth="yes"/>
			<point x="6" y="538"/>
			<point x="-3" y="480"/>
			<point x="-3" y="417" type="curve" smooth="yes"/>
			<point x="-3" y="299"/>
			<point x="40" y="174"/>
			<point x="126" y="42" type="curve"/>
			<point x="197" y="85" type="line"/>
			<point x="114" y="206"/>
			<point x="76" y="298"/>
			<point x="76" y="417" type="curve" smooth="yes"/>
			<point x="76" y="514"/>
			<point x="98" y="594"/>
			<point x="145" y="641" type="curve" smooth="yes"/>
			<point x="169" y="665"/>
			<point x="200" y="677"/>
			<point x="239" y="677" type="curve" smooth="yes"/>
			<point x="311" y="677"/>
			<point x="350" y="635"/>
			<point x="373" y="553" type="curve" smooth="yes"/>
			<point x="384" y="514"/>
			<point x="392" y="469"/>
			<point x="397" y="418" type="curve" smooth="yes"/>
			<point x="412" y="280"/>
			<point x="446" y="154"/>
			<point x="499" y="41" type="curve" smooth="yes"/>
			<point x="550" y="-67"/>
			<point x="601" y="-119"/>
		</contour>
	</outline>
</glyph>
<glyph name="GxA.medi" format="2">
	<advance width="666" height="1750"/>
	<note>
		u182C_1821.medV1
	</note>
	<outline>
		<contour>
			<point x="126" y="42" type="curve"/>
			<point x="197" y="85" type="line"/>
			<point x="114" y="206"/>
			<point x="76" y="298"/>
			<point x="76" y="417" type="curve" smooth="yes"/>
			<point x="76" y="568"/>
			<point x="132" y="644"/>
			<point x="227" y="644" type="curve" smooth="yes"/>
			<point x="304" y="644"/>
			<point x="343" y="598"/>
			<point x="363" y="510" type="curve" smooth="yes"/>
			<point x="372" y="467"/>
			<point x="378" y="418"/>
			<point x="382" y="363" type="curve" smooth="yes"/>
			<point x="401" y="96" type="line"/>
			<point x="467" y="96" type="line"/>
			<point x="486" y="364" type="line"/>
			<point x="696" y="364" type="line"/>
			<point x="696" y="444" type="line"/>
			<point x="455" y="444" type="line"/>
			<point x="441" y="565"/>
			<point x="405" y="648"/>
			<point x="348" y="692" type="curve" smooth="yes"/>
			<point x="317" y="715"/>
			<point x="276" y="727"/>
			<point x="226" y="727" type="curve" smooth="yes"/>
			<point x="134" y="727"/>
			<point x="64" y="674"/>
			<point x="26" y="582" type="curve" smooth="yes"/>
			<point x="7" y="535"/>
			<point x="-3" y="480"/>
			<point x="-3" y="417" type="curve" smooth="yes"/>
			<point x="-3" y="299"/>
			<point x="40" y="174"/>
		</contour>
		<contour>
			<point x="93" y="-157" type="curve"/>
			<point x="136" y="-196" type="line"/>
			<point x="171" y="-160"/>
			<point x="217" y="-121"/>
			<point x="275" y="-80" type="curve"/>
			<point x="214" y="-11" type="line"/>
			<point x="175" y="-50"/>
			<point x="134" y="-99"/>
		</contour>
		<contour>
			<point x="307" y="-157" type="curve"/>
			<point x="350" y="-196" type="line"/>
			<point x="385" y="-160"/>
			<point x="431" y="-121"/>
			<point x="489" y="-80" type="curve"/>
			<point x="428" y="-11" type="line"/>
			<point x="389" y="-50"/>
			<point x="348" y="-99"/>
		</contour>
	</outline>
</glyph>
<glyph name="GxW.init" format="2">
	<advance width="885" height="1750"/>
	<note>
		u182C_1827.iniV1
	</note>
	<outline>
		<contour>
			<point x="737" y="-119" type="curve" smooth="yes"/>
			<point x="776" y="-119"/>
			<point x="804" y="-108"/>
			<point x="819" y="-85" type="curve"/>
			<point x="819" y="6" type="line"/>
			<point x="801" y="-22"/>
			<point x="774" y="-36"/>
			<point x="737" y="-36" type="curve" smooth="yes"/>
			<point x="702" y="-36"/>
			<point x="669" y="-11"/>
			<point x="639" y="41" type="curve" smooth="yes"/>
			<point x="625" y="64"/>
			<point x="612" y="89"/>
			<point x="599" y="117" type="curve" smooth="yes"/>
			<point x="564" y="193"/>
			<point x="541" y="275"/>
			<point x="530" y="364" type="curve"/>
			<point x="915" y="364" type="line"/>
			<point x="915" y="444" type="line"/>
			<point x="521" y="444" type="line"/>
			<point x="505" y="575"/>
			<point x="473" y="667"/>
			<point x="413" y="719" type="curve" smooth="yes"/>
			<point x="381" y="746"/>
			<point x="339" y="760"/>
			<point x="287" y="760" type="curve" smooth="yes"/>
			<point x="183" y="760"/>
			<point x="109" y="697"/>
			<point x="72" y="590" type="curve" smooth="yes"/>
			<point x="54" y="538"/>
			<point x="45" y="480"/>
			<point x="45" y="417" type="curve" smooth="yes"/>
			<point x="45" y="299"/>
			<point x="88" y="174"/>
			<point x="174" y="42" type="curve"/>
			<point x="245" y="85" type="line"/>
			<point x="162" y="206"/>
			<point x="124" y="298"/>
			<point x="124" y="417" type="curve" smooth="yes"/>
			<point x="124" y="514"/>
			<point x="146" y="594"/>
			<point x="193" y="641" type="curve" smooth="yes"/>
			<point x="217" y="665"/>
			<point x="248" y="677"/>
			<point x="287" y="677" type="curve" smooth="yes"/>
			<point x="359" y="677"/>
			<point x="398" y="635"/>
			<point x="421" y="553" type="curve" smooth="yes"/>
			<point x="432" y="514"/>
			<point x="440" y="469"/>
			<point x="445" y="418" type="curve" smooth="yes"/>
			<point x="460" y="280"/>
			<point x="494" y="154"/>
			<point x="547" y="41" type="curve" smooth="yes"/>
			<point x="598" y="-67"/>
			<point x="649" y="-119"/>
		</contour>
		<contour>
			<point x="119" y="-157" type="curve"/>
			<point x="162" y="-196" type="line"/>
			<point x="197" y="-160"/>
			<point x="243" y="-121"/>
			<point x="301" y="-80" type="curve"/>
			<point x="240" y="-11" type="line"/>
			<point x="201" y="-50"/>
			<point x="160" y="-99"/>
		</contour>
		<contour>
			<point x="334" y="-157" type="curve"/>
			<point x="377" y="-196" type="line"/>
			<point x="412" y="-160"/>
			<point x="458" y="-121"/>
			<point x="516" y="-80" type="curve"/>
			<point x="455" y="-11" type="line"/>
			<point x="416" y="-50"/>
			<point x="375" y="-99"/>
		</contour>
	</outline>
</glyph>
<glyph name="K2I.medi" format="2">
	<advance width="765" height="1750"/>
	<note>
		u183A_1822.med
	</note>
	<outline>
		<contour>
			<point x="577" y="-67" type="curve"/>
			<point x="650" y="-31" type="line"/>
			<point x="568" y="98"/>
			<point x="514" y="230"/>
			<point x="488" y="364" type="curve"/>
			<point x="795" y="364" type="line"/>
			<point x="795" y="444" type="line"/>
			<point x="478" y="444" type="line"/>
			<point x="462" y="579"/>
			<point x="426" y="671"/>
			<point x="369" y="720" type="curve" smooth="yes"/>
			<point x="337" y="747"/>
			<point x="295" y="760"/>
			<point x="242" y="760" type="curve" smooth="yes"/>
			<point x="137" y="760"/>
			<point x="63" y="698"/>
			<point x="27" y="591" type="curve" smooth="yes"/>
			<point x="9" y="540"/>
			<point x="0" y="482"/>
			<point x="0" y="419" type="curve" smooth="yes"/>
			<point x="0" y="96" type="line"/>
			<point x="66" y="96" type="line"/>
			<point x="74" y="215" type="line"/>
			<point x="101" y="158"/>
			<point x="142" y="98"/>
			<point x="199" y="35" type="curve"/>
			<point x="261" y="90" type="line"/>
			<point x="137" y="223"/>
			<point x="79" y="330"/>
			<point x="79" y="419" type="curve" smooth="yes"/>
			<point x="79" y="516"/>
			<point x="101" y="596"/>
			<point x="148" y="642" type="curve" smooth="yes"/>
			<point x="172" y="665"/>
			<point x="203" y="677"/>
			<point x="242" y="677" type="curve" smooth="yes"/>
			<point x="315" y="677"/>
			<point x="355" y="636"/>
			<point x="377" y="555" type="curve" smooth="yes"/>
			<point x="387" y="516"/>
			<point x="395" y="471"/>
			<point x="402" y="418" type="curve" smooth="yes"/>
			<point x="423" y="254"/>
			<point x="485" y="85"/>
		</contour>
	</outline>
</glyph>
<glyph name="PA.fina" format="2">
	<advance width="1092" height="1750"/>
	<note>
		u182B_1820.fin
	</note>
	<outline>
		<contour>
			<point x="786" y="-264" type="curve"/>
			<point x="868" y="-264" type="line"/>
			<point x="854" y="-240"/>
			<point x="847" y="-214"/>
			<point x="847" y="-187" type="curve" smooth="yes"/>
			<point x="847" y="-130"/>
			<point x="865" y="-94"/>
			<point x="914" y="-31" type="curve" smooth="yes"/>
			<point x="1002" y="81"/>
			<point x="1047" y="161"/>
			<point x="1047" y="245" type="curve" smooth="yes"/>
			<point x="1047" y="374"/>
			<point x="969" y="444"/>
			<point x="816" y="444" type="curve" smooth="yes"/>
			<point x="573" y="444" type="line"/>
			<point x="541" y="667"/>
			<point x="444" y="782"/>
			<point x="285" y="782" type="curve" smooth="yes"/>
			<point x="160" y="782"/>
			<point x="74" y="716"/>
			<point x="31" y="601" type="curve" smooth="yes"/>
			<point x="10" y="544"/>
			<point x="0" y="480"/>
			<point x="0" y="408" type="curve" smooth="yes"/>
			<point x="0" y="364" type="line"/>
			<point x="284" y="364" type="line"/>
			<point x="291" y="344"/>
			<point x="294" y="314"/>
			<point x="294" y="275" type="curve" smooth="yes"/>
			<point x="294" y="202"/>
			<point x="253" y="153"/>
			<point x="186" y="153" type="curve" smooth="yes"/>
			<point x="107" y="153"/>
			<point x="56" y="147"/>
			<point x="17" y="122" type="curve"/>
			<point x="17" y="42" type="line"/>
			<point x="61" y="67"/>
			<point x="109" y="73"/>
			<point x="186" y="73" type="curve" smooth="yes"/>
			<point x="262" y="73"/>
			<point x="319" y="108"/>
			<point x="350" y="171" type="curve" smooth="yes"/>
			<point x="365" y="202"/>
			<point x="373" y="236"/>
			<point x="373" y="275" type="curve" smooth="yes"/>
			<point x="373" y="332"/>
			<point x="366" y="388"/>
			<point x="352" y="444" type="curve"/>
			<point x="79" y="444" type="line"/>
			<point x="80" y="543"/>
			<point x="112" y="622"/>
			<point x="172" y="666" type="curve" smooth="yes"/>
			<point x="202" y="688"/>
			<point x="240" y="699"/>
			<point x="285" y="699" type="curve" smooth="yes"/>
			<point x="414" y="699"/>
			<point x="485" y="588"/>
			<point x="501" y="364" type="curve" smooth="yes"/>
			<point x="520" y="96" type="line"/>
			<point x="586" y="96" type="line"/>
			<point x="605" y="364" type="line"/>
			<point x="815" y="364" type="line" smooth="yes"/>
			<point x="920" y="364"/>
			<point x="969" y="325"/>
			<point x="969" y="245" type="curve" smooth="yes"/>
			<point x="969" y="181"/>
			<point x="935" y="125"/>
			<point x="862" y="28" type="curve" smooth="yes"/>
			<point x="798" y="-59"/>
			<point x="767" y="-115"/>
			<point x="767" y="-187" type="curve" smooth="yes"/>
			<point x="767" y="-218"/>
			<point x="773" y="-243"/>
		</contour>
	</outline>
</glyph>
<glyph name="PA.isol" format="2">
	<advance width="1137" height="1750"/>
	<note>
		u182B_1820
	</note>
	<outline>
		<contour>
			<point x="831" y="-264" type="curve"/>
			<point x="913" y="-264" type="line"/>
			<point x="899" y="-240"/>
			<point x="892" y="-214"/>
			<point x="892" y="-187" type="curve" smooth="yes"/>
			<point x="892" y="-130"/>
			<point x="910" y="-94"/>
			<point x="959" y="-31" type="curve" smooth="yes"/>
			<point x="1047" y="81"/>
			<point x="1092" y="161"/>
			<point x="1092" y="245" type="curve" smooth="yes"/>
			<point x="1092" y="374"/>
			<point x="1014" y="444"/>
			<point x="861" y="444" type="curve" smooth="yes"/>
			<point x="618" y="444" type="line"/>
			<point x="586" y="667"/>
			<point x="489" y="782"/>
			<point x="330" y="782" type="curve" smooth="yes"/>
			<point x="205" y="782"/>
			<point x="119" y="716"/>
			<point x="76" y="601" type="curve" smooth="yes"/>
			<point x="55" y="544"/>
			<point x="45" y="480"/>
			<point x="45" y="408" type="curve" smooth="yes"/>
			<point x="45" y="364" type="line"/>
			<point x="329" y="364" type="line"/>
			<point x="336" y="344"/>
			<point x="339" y="314"/>
			<point x="339" y="275" type="curve" smooth="yes"/>
			<point x="339" y="202"/>
			<point x="298" y="153"/>
			<point x="231" y="153" type="curve" smooth="yes"/>
			<point x="152" y="153"/>
			<point x="101" y="147"/>
			<point x="62" y="122" type="curve"/>
			<point x="62" y="42" type="line"/>
			<point x="106" y="67"/>
			<point x="154" y="73"/>
			<point x="231" y="73" type="curve" smooth="yes"/>
			<point x="307" y="73"/>
			<point x="364" y="108"/>
			<point x="395" y="171" type="curve" smooth="yes"/>
			<point x="410" y="202"/>
			<point x="418" y="236"/>
			<point x="418" y="275" type="curve" smooth="yes"/>
			<point x="418" y="332"/>
			<point x="411" y="388"/>
			<point x="397" y="444" type="curve"/>
			<point x="124" y="444" type="line"/>
			<point x="125" y="543"/>
			<point x="157" y="622"/>
			<point x="217" y="666" type="curve" smooth="yes"/>
			<point x="247" y="688"/>
			<point x="285" y="699"/>
			<point x="330" y="699" type="curve" smooth="yes"/>
			<point x="459" y="699"/>
			<point x="530" y="588"/>
			<point x="546" y="364" type="curve" smooth="yes"/>
			<point x="565" y="96" type="line"/>
			<point x="631" y="96" type="line"/>
			<point x="650" y="364" type="line"/>
			<point x="860" y="364" type="line" smooth="yes"/>
			<point x="965" y="364"/>
			<point x="1014" y="325"/>
			<point x="1014" y="245" type="curve" smooth="yes"/>
			<point x="1014" y="181"/>
			<point x="980" y="125"/>
			<point x="907" y="28" type="curve" smooth="yes"/>
			<point x="843" y="-59"/>
			<point x="812" y="-115"/>
			<point x="812" y="-187" type="curve" smooth="yes"/>
			<point x="812" y="-218"/>
			<point x="818" y="-243"/>
		</contour>
	</outline>
</glyph>
<glyph name="POI.init" format="2">
	<advance width="1191" height="1750"/>
	<note>
		u182B_1825.ini
	</note>
	<outline>
		<contour>
			<point x="1003" y="-67" type="curve"/>
			<point x="1076" y="-31" type="line"/>
			<point x="1003" y="98"/>
			<point x="948" y="229"/>
			<point x="909" y="364" type="curve"/>
			<point x="1221" y="364" type="line"/>
			<point x="1221" y="444" type="line"/>
			<point x="715" y="444" type="line"/>
			<point x="700" y="583"/>
			<point x="639" y="686"/>
			<point x="542" y="741" type="curve" smooth="yes"/>
			<point x="493" y="768"/>
			<point x="436" y="782"/>
			<point x="371" y="782" type="curve" smooth="yes"/>
			<point x="240" y="782"/>
			<point x="140" y="719"/>
			<point x="86" y="608" type="curve" smooth="yes"/>
			<point x="59" y="552"/>
			<point x="45" y="486"/>
			<point x="45" y="410" type="curve" smooth="yes"/>
			<point x="45" y="364" type="line"/>
			<point x="326" y="364" type="line"/>
			<point x="326" y="275" type="line" smooth="yes"/>
			<point x="326" y="198"/>
			<point x="285" y="153"/>
			<point x="225" y="153" type="curve" smooth="yes"/>
			<point x="149" y="153"/>
			<point x="101" y="147"/>
			<point x="62" y="122" type="curve"/>
			<point x="62" y="42" type="line"/>
			<point x="105" y="67"/>
			<point x="152" y="73"/>
			<point x="225" y="73" type="curve" smooth="yes"/>
			<point x="282" y="73"/>
			<point x="328" y="94"/>
			<point x="363" y="136" type="curve"/>
			<point x="388" y="72"/>
			<point x="436" y="40"/>
			<point x="505" y="40" type="curve" smooth="yes"/>
			<point x="648" y="40"/>
			<point x="716" y="144"/>
			<point x="719" y="364" type="curve"/>
			<point x="830" y="364" type="line"/>
			<point x="869" y="220"/>
			<point x="926" y="76"/>
		</contour>
		<contour>
			<point x="505" y="123" type="curve" smooth="yes"/>
			<point x="438" y="123"/>
			<point x="405" y="177"/>
			<point x="405" y="286" type="curve" smooth="yes"/>
			<point x="405" y="364" type="line"/>
			<point x="640" y="364" type="line"/>
			<point x="639" y="259"/>
			<point x="626" y="190"/>
			<point x="591" y="153" type="curve" smooth="yes"/>
			<point x="572" y="133"/>
			<point x="543" y="123"/>
		</contour>
		<contour>
			<point x="635" y="444" type="curve"/>
			<point x="124" y="444" type="line"/>
			<point x="127" y="545"/>
			<point x="169" y="623"/>
			<point x="243" y="667" type="curve" smooth="yes"/>
			<point x="280" y="688"/>
			<point x="323" y="699"/>
			<point x="372" y="699" type="curve" smooth="yes"/>
			<point x="471" y="699"/>
			<point x="544" y="656"/>
			<point x="591" y="578" type="curve" smooth="yes"/>
			<point x="614" y="539"/>
			<point x="628" y="495"/>
		</contour>
	</outline>
</glyph>
<glyph name="a.Aa.fina" format="2">
	<advance width="439" height="1750"/>
	<note>
		u182D_1821
	</note>
	<outline>
		<contour>
			<point x="133" y="-264" type="curve"/>
			<point x="215" y="-264" type="line"/>
			<point x="201" y="-238"/>
			<point x="194" y="-212"/>
			<point x="194" y="-187" type="curve" smooth="yes"/>
			<point x="194" y="-130"/>
			<point x="213" y="-94"/>
			<point x="261" y="-31" type="curve" smooth="yes"/>
			<point x="346" y="77"/>
			<point x="394" y="162"/>
			<point x="394" y="245" type="curve" smooth="yes"/>
			<point x="394" y="374"/>
			<point x="315" y="444"/>
			<point x="163" y="444" type="curve" smooth="yes"/>
			<point x="0" y="444" type="line"/>
			<point x="0" y="364" type="line"/>
			<point x="162" y="364" type="line" smooth="yes"/>
			<point x="267" y="364"/>
			<point x="316" y="325"/>
			<point x="316" y="244" type="curve" smooth="yes"/>
			<point x="316" y="180"/>
			<point x="285" y="125"/>
			<point x="209" y="28" type="curve" smooth="yes"/>
			<point x="146" y="-55"/>
			<point x="114" y="-115"/>
			<point x="114" y="-187" type="curve" smooth="yes"/>
			<point x="114" y="-217"/>
			<point x="120" y="-243"/>
		</contour>
	</outline>
</glyph>
<glyph name="cr.Cr.init" format="2">
	<advance width="1102" height="1750"/>
	<note>
		u1842.ini
	</note>
	<outline>
		<contour>
			<point x="242" y="40" type="curve" smooth="yes"/>
			<point x="367" y="40"/>
			<point x="440" y="121"/>
			<point x="440" y="249" type="curve" smooth="yes"/>
			<point x="440" y="294"/>
			<point x="433" y="332"/>
			<point x="420" y="364" type="curve"/>
			<point x="549" y="364" type="line"/>
			<point x="536" y="330"/>
			<point x="529" y="292"/>
			<point x="529" y="249" type="curve" smooth="yes"/>
			<point x="529" y="116"/>
			<point x="598" y="40"/>
			<point x="726" y="40" type="curve" smooth="yes"/>
			<point x="851" y="40"/>
			<point x="924" y="121"/>
			<point x="924" y="249" type="curve" smooth="yes"/>
			<point x="924" y="296"/>
			<point x="917" y="334"/>
			<point x="902" y="364" type="curve"/>
			<point x="1132" y="364" type="line"/>
			<point x="1132" y="444" type="line"/>
			<point x="90" y="444" type="line"/>
			<point x="59" y="392"/>
			<point x="45" y="336"/>
			<point x="45" y="260" type="curve" smooth="yes"/>
			<point x="45" y="120"/>
			<point x="113" y="40"/>
		</contour>
		<contour>
			<point x="242" y="123" type="curve" smooth="yes"/>
			<point x="163" y="123"/>
			<point x="124" y="169"/>
			<point x="124" y="262" type="curve" smooth="yes"/>
			<point x="124" y="301"/>
			<point x="131" y="335"/>
			<point x="144" y="364" type="curve"/>
			<point x="341" y="364" type="line"/>
			<point x="354" y="332"/>
			<point x="361" y="294"/>
			<point x="361" y="251" type="curve" smooth="yes"/>
			<point x="361" y="167"/>
			<point x="317" y="123"/>
		</contour>
		<contour>
			<point x="726" y="123" type="curve" smooth="yes"/>
			<point x="647" y="123"/>
			<point x="608" y="166"/>
			<point x="608" y="251" type="curve" smooth="yes"/>
			<point x="608" y="294"/>
			<point x="615" y="331"/>
			<point x="628" y="364" type="curve"/>
			<point x="825" y="364" type="line"/>
			<point x="838" y="331"/>
			<point x="845" y="294"/>
			<point x="845" y="251" type="curve" smooth="yes"/>
			<point x="845" y="167"/>
			<point x="801" y="123"/>
		</contour>
	</outline>
</glyph>
<glyph name="d.Dd.fina" format="2">
	<advance width="1000" height="1750"/>
	<note>
		u1833.fin
	</note>
	<outline>
		<contour>
			<point x="197" y="40" type="curve" smooth="yes"/>
			<point x="322" y="40"/>
			<point x="395" y="121"/>
			<point x="395" y="249" type="curve" smooth="yes"/>
			<point x="395" y="294"/>
			<point x="388" y="332"/>
			<point x="373" y="364" type="curve"/>
			<point x="540" y="364" type="line"/>
			<point x="540" y="259"/>
			<point x="585" y="161"/>
			<point x="662" y="103" type="curve" smooth="yes"/>
			<point x="701" y="73"/>
			<point x="748" y="56"/>
			<point x="801" y="53" type="curve"/>
			<point x="801" y="156" type="line" smooth="yes"/>
			<point x="801" y="325"/>
			<point x="827" y="494"/>
			<point x="880" y="639" type="curve" smooth="yes"/>
			<point x="908" y="714"/>
			<point x="945" y="779"/>
			<point x="990" y="836" type="curve"/>
			<point x="898" y="836" type="line"/>
			<point x="839" y="759"/>
			<point x="795" y="657"/>
			<point x="765" y="528" type="curve" smooth="yes"/>
			<point x="738" y="410"/>
			<point x="724" y="286"/>
			<point x="724" y="156" type="curve"/>
			<point x="664" y="192"/>
			<point x="633" y="246"/>
			<point x="622" y="321" type="curve" smooth="yes"/>
			<point x="617" y="358"/>
			<point x="614" y="399"/>
			<point x="614" y="444" type="curve"/>
			<point x="0" y="444" type="line"/>
			<point x="0" y="364" type="line"/>
			<point x="20" y="364" type="line"/>
			<point x="7" y="332"/>
			<point x="0" y="294"/>
			<point x="0" y="249" type="curve" smooth="yes"/>
			<point x="0" y="116"/>
			<point x="69" y="40"/>
		</contour>
		<contour>
			<point x="197" y="123" type="curve" smooth="yes"/>
			<point x="118" y="123"/>
			<point x="79" y="166"/>
			<point x="79" y="251" type="curve" smooth="yes"/>
			<point x="79" y="294"/>
			<point x="86" y="332"/>
			<point x="99" y="364" type="curve"/>
			<point x="296" y="364" type="line"/>
			<point x="309" y="332"/>
			<point x="316" y="294"/>
			<point x="316" y="251" type="curve" smooth="yes"/>
			<point x="316" y="167"/>
			<point x="273" y="123"/>
		</contour>
	</outline>
</glyph>
<glyph name="g.H.fina" format="2">
	<advance width="663" height="1750"/>
	<note>
		u182D.fin
	</note>
	<outline>
		<contour>
			<point x="506" y="74" type="curve"/>
			<point x="506" y="186" type="line" smooth="yes"/>
			<point x="506" y="369"/>
			<point x="538" y="522"/>
			<point x="618" y="666" type="curve"/>
			<point x="525" y="666" type="line"/>
			<point x="460" y="537"/>
			<point x="427" y="377"/>
			<point x="427" y="188" type="curve"/>
			<point x="344" y="235"/>
			<point x="321" y="309"/>
			<point x="321" y="444" type="curve"/>
			<point x="0" y="444" type="line"/>
			<point x="0" y="364" type="line"/>
			<point x="19" y="96" type="line"/>
			<point x="85" y="96" type="line"/>
			<point x="104" y="364" type="line"/>
			<point x="251" y="364" type="line"/>
			<point x="251" y="264"/>
			<point x="299" y="169"/>
			<point x="377" y="115" type="curve" smooth="yes"/>
			<point x="416" y="88"/>
			<point x="459" y="74"/>
		</contour>
	</outline>
</glyph>
<glyph name="hh.Hh.medi" format="2">
	<advance width="521" height="1750"/>
	<note>
		u183E.med
	</note>
	<outline>
		<contour>
			<point x="140" y="-182" type="curve"/>
			<point x="409" y="-57" type="line"/>
			<point x="334" y="82"/>
			<point x="298" y="215"/>
			<point x="295" y="364" type="curve"/>
			<point x="551" y="364" type="line"/>
			<point x="551" y="444" type="line"/>
			<point x="219" y="444" type="line"/>
			<point x="219" y="366" type="line" smooth="yes"/>
			<point x="219" y="221"/>
			<point x="247" y="93"/>
			<point x="303" y="-17" type="curve"/>
			<point x="179" y="-72" type="line"/>
			<point x="106" y="69"/>
			<point x="75" y="199"/>
			<point x="75" y="364" type="curve" smooth="yes"/>
			<point x="75" y="444" type="line"/>
			<point x="0" y="444" type="line"/>
			<point x="0" y="364" type="line" smooth="yes"/>
			<point x="0" y="168"/>
			<point x="45" y="-5"/>
		</contour>
	</outline>
</glyph>
<glyph name="k2.K2.fina" format="2">
	<advance width="620" height="1750"/>
	<note>
		u183A.fin
	</note>
	<outline>
		<contour>
			<point x="259" y="-264" type="curve"/>
			<point x="341" y="-264" type="line"/>
			<point x="327" y="-238"/>
			<point x="320" y="-212"/>
			<point x="320" y="-187" type="curve" smooth="yes"/>
			<point x="320" y="-124"/>
			<point x="343" y="-84"/>
			<point x="403" y="-7" type="curve" smooth="yes"/>
			<point x="480" y="90"/>
			<point x="529" y="169"/>
			<point x="555" y="250" type="curve" smooth="yes"/>
			<point x="568" y="293"/>
			<point x="575" y="339"/>
			<point x="575" y="388" type="curve" smooth="yes"/>
			<point x="575" y="523"/>
			<point x="529" y="627"/>
			<point x="445" y="684" type="curve" smooth="yes"/>
			<point x="402" y="713"/>
			<point x="348" y="727"/>
			<point x="284" y="727" type="curve" smooth="yes"/>
			<point x="169" y="727"/>
			<point x="82" y="675"/>
			<point x="35" y="583" type="curve" smooth="yes"/>
			<point x="12" y="537"/>
			<point x="0" y="482"/>
			<point x="0" y="419" type="curve" smooth="yes"/>
			<point x="0" y="96" type="line"/>
			<point x="66" y="96" type="line"/>
			<point x="74" y="215" type="line"/>
			<point x="94" y="171"/>
			<point x="125" y="124"/>
			<point x="166" y="73" type="curve"/>
			<point x="228" y="128" type="line"/>
			<point x="165" y="201"/>
			<point x="123" y="265"/>
			<point x="100" y="320" type="curve" smooth="yes"/>
			<point x="86" y="353"/>
			<point x="79" y="386"/>
			<point x="79" y="419" type="curve" smooth="yes"/>
			<point x="79" y="562"/>
			<point x="152" y="644"/>
			<point x="284" y="644" type="curve" smooth="yes"/>
			<point x="420" y="644"/>
			<point x="497" y="545"/>
			<point x="497" y="388" type="curve" smooth="yes"/>
			<point x="497" y="304"/>
			<point x="476" y="235"/>
			<point x="433" y="164" type="curve" smooth="yes"/>
			<point x="411" y="129"/>
			<point x="383" y="91"/>
			<point x="350" y="50" type="curve" smooth="yes"/>
			<point x="273" y="-46"/>
			<point x="240" y="-104"/>
			<point x="240" y="-187" type="curve" smooth="yes"/>
			<point x="240" y="-213"/>
			<point x="246" y="-239"/>
		</contour>
	</outline>
</glyph>
<glyph name="k2.K2.medi" format="2">
	<advance width="384" height="1750"/>
	<note>
		u183A.med
	</note>
	<outline>
		<contour>
			<point x="199" y="35" type="curve"/>
			<point x="261" y="90" type="line"/>
			<point x="137" y="223"/>
			<point x="79" y="330"/>
			<point x="79" y="419" type="curve" smooth="yes"/>
			<point x="79" y="511"/>
			<point x="100" y="576"/>
			<point x="142" y="614" type="curve" smooth="yes"/>
			<point x="164" y="634"/>
			<point x="193" y="644"/>
			<point x="229" y="644" type="curve" smooth="yes"/>
			<point x="306" y="644"/>
			<point x="346" y="598"/>
			<point x="366" y="510" type="curve" smooth="yes"/>
			<point x="375" y="468"/>
			<point x="381" y="419"/>
			<point x="384" y="364" type="curve"/>
			<point x="458" y="364" type="line"/>
			<point x="449" y="612"/>
			<point x="377" y="727"/>
			<point x="229" y="727" type="curve" smooth="yes"/>
			<point x="130" y="727"/>
			<point x="61" y="672"/>
			<point x="26" y="577" type="curve" smooth="yes"/>
			<point x="9" y="530"/>
			<point x="0" y="478"/>
			<point x="0" y="419" type="curve" smooth="yes"/>
			<point x="0" y="96" type="line"/>
			<point x="66" y="96" type="line"/>
			<point x="74" y="215" type="line"/>
			<point x="101" y="158"/>
			<point x="142" y="98"/>
		</contour>
	</outline>
</glyph>
<glyph name="lh.Lh.medi" format="2">
	<advance width="805" height="1750"/>
	<note>
		u1840.med
	</note>
	<outline>
		<contour>
			<point x="424" y="-182" type="curve"/>
			<point x="693" y="-57" type="line"/>
			<point x="618" y="83"/>
			<point x="582" y="216"/>
			<point x="579" y="364" type="curve"/>
			<point x="835" y="364" type="line"/>
			<point x="835" y="444" type="line"/>
			<point x="503" y="444" type="line"/>
			<point x="503" y="366" type="line" smooth="yes"/>
			<point x="503" y="222"/>
			<point x="531" y="94"/>
			<point x="587" y="-17" type="curve"/>
			<point x="463" y="-72" type="line"/>
			<point x="390" y="68"/>
			<point x="359" y="197"/>
			<point x="359" y="364" type="curve" smooth="yes"/>
			<point x="359" y="444" type="line"/>
			<point x="86" y="444" type="line"/>
			<point x="89" y="516"/>
			<point x="108" y="578"/>
			<point x="148" y="653" type="curve"/>
			<point x="148" y="719" type="line"/>
			<point x="28" y="719" type="line" smooth="yes"/>
			<point x="-57" y="719"/>
			<point x="-107" y="724"/>
			<point x="-152" y="755" type="curve"/>
			<point x="-152" y="677" type="line"/>
			<point x="-115" y="645"/>
			<point x="-67" y="639"/>
			<point x="28" y="639" type="curve" smooth="yes"/>
			<point x="62" y="639" type="line"/>
			<point x="35" y="581"/>
			<point x="19" y="516"/>
			<point x="16" y="444" type="curve"/>
			<point x="0" y="444" type="line"/>
			<point x="0" y="364" type="line"/>
			<point x="19" y="96" type="line"/>
			<point x="85" y="96" type="line"/>
			<point x="104" y="364" type="line"/>
			<point x="284" y="364" type="line"/>
			<point x="284" y="168"/>
			<point x="329" y="-5"/>
		</contour>
	</outline>
</glyph>
<glyph name="sh.Sh.medi" format="2">
	<advance width="581" height="1750"/>
	<note>
		u1831.med
	</note>
	<outline>
		<contour>
			<point x="28" y="73" type="curve"/>
			<point x="105" y="73" type="line"/>
			<point x="97" y="106"/>
			<point x="93" y="148"/>
			<point x="93" y="199" type="curve" smooth="yes"/>
			<point x="93" y="352"/>
			<point x="125" y="482"/>
			<point x="197" y="617" type="curve"/>
			<point x="201" y="617" type="line"/>
			<point x="217" y="416"/>
			<point x="258" y="245"/>
			<point x="334" y="73" type="curve"/>
			<point x="419" y="73" type="line"/>
			<point x="371" y="172"/>
			<point x="336" y="269"/>
			<point x="313" y="364" type="curve"/>
			<point x="611" y="364" type="line"/>
			<point x="611" y="444" type="line"/>
			<point x="296" y="444" type="line"/>
			<point x="279" y="535"/>
			<point x="271" y="632"/>
			<point x="271" y="734" type="curve"/>
			<point x="190" y="734" type="line"/>
			<point x="127" y="647"/>
			<point x="80" y="551"/>
			<point x="50" y="444" type="curve"/>
			<point x="0" y="444" type="line"/>
			<point x="0" y="364" type="line" smooth="yes"/>
			<point x="0" y="303"/>
			<point x="5" y="238"/>
			<point x="14" y="167" type="curve" smooth="yes"/>
			<point x="18" y="133"/>
			<point x="23" y="102"/>
		</contour>
		<contour>
			<point x="97" y="816" type="curve"/>
			<point x="140" y="777" type="line"/>
			<point x="175" y="813"/>
			<point x="221" y="852"/>
			<point x="279" y="893" type="curve"/>
			<point x="218" y="962" type="line"/>
			<point x="179" y="923"/>
			<point x="138" y="874"/>
		</contour>
		<contour>
			<point x="304" y="816" type="curve"/>
			<point x="347" y="777" type="line"/>
			<point x="382" y="813"/>
			<point x="428" y="852"/>
			<point x="486" y="893" type="curve"/>
			<point x="425" y="962" type="line"/>
			<point x="386" y="923"/>
			<point x="345" y="874"/>
		</contour>
	</outline>
</glyph>
<glyph name="t.D.medi" format="2">
	<advance width="613" height="1750"/>
	<note>
		u1832.med
	</note>
	<outline>
		<contour>
			<point x="319" y="-157" type="curve" smooth="yes"/>
			<point x="386" y="-157"/>
			<point x="440" y="-125"/>
			<point x="469" y="-70" type="curve" smooth="yes"/>
			<point x="484" y="-42"/>
			<point x="491" y="-10"/>
			<point x="491" y="27" type="curve" smooth="yes"/>
			<point x="491" y="152"/>
			<point x="414" y="232"/>
			<point x="290" y="232" type="curve" smooth="yes"/>
			<point x="230" y="232"/>
			<point x="175" y="202"/>
			<point x="142" y="154" type="curve"/>
			<point x="117" y="225"/>
			<point x="96" y="295"/>
			<point x="79" y="364" type="curve"/>
			<point x="643" y="364" type="line"/>
			<point x="643" y="444" type="line"/>
			<point x="0" y="444" type="line"/>
			<point x="0" y="364" type="line"/>
			<point x="23" y="267"/>
			<point x="51" y="175"/>
			<point x="84" y="88" type="curve" smooth="yes"/>
			<point x="128" y="-19"/>
			<point x="166" y="-86"/>
			<point x="218" y="-126" type="curve" smooth="yes"/>
			<point x="246" y="-147"/>
			<point x="280" y="-157"/>
		</contour>
		<contour>
			<point x="319" y="-77" type="curve" smooth="yes"/>
			<point x="262" y="-77"/>
			<point x="216" y="-32"/>
			<point x="172" y="76" type="curve"/>
			<point x="195" y="123"/>
			<point x="239" y="153"/>
			<point x="290" y="153" type="curve" smooth="yes"/>
			<point x="370" y="153"/>
			<point x="413" y="106"/>
			<point x="413" y="27" type="curve" smooth="yes"/>
			<point x="413" y="-37"/>
			<point x="376" y="-77"/>
		</contour>
	</outline>
</glyph>
<glyph name="t.T.fina" format="2">
	<advance width="874" height="1750"/>
	<note>
		u1832.fin
	</note>
	<outline>
		<contour>
			<point x="359" y="96" type="line"/>
			<point x="425" y="96" type="line"/>
			<point x="444" y="364" type="line"/>
			<point x="654" y="364" type="line" smooth="yes"/>
			<point x="723" y="364"/>
			<point x="752" y="335"/>
			<point x="752" y="279" type="curve" smooth="yes"/>
			<point x="752" y="234"/>
			<point x="745" y="195"/>
			<point x="730" y="162" type="curve"/>
			<point x="804" y="162" type="line"/>
			<point x="821" y="198"/>
			<point x="829" y="237"/>
			<point x="829" y="279" type="curve" smooth="yes"/>
			<point x="829" y="389"/>
			<point x="771" y="444"/>
			<point x="654" y="444" type="curve" smooth="yes"/>
			<point x="414" y="444" type="line"/>
			<point x="409" y="587"/>
			<point x="384" y="682"/>
			<point x="325" y="735" type="curve" smooth="yes"/>
			<point x="294" y="763"/>
			<point x="252" y="777"/>
			<point x="197" y="777" type="curve" smooth="yes"/>
			<point x="120" y="777"/>
			<point x="57" y="740"/>
			<point x="24" y="675" type="curve" smooth="yes"/>
			<point x="7" y="643"/>
			<point x="-1" y="606"/>
			<point x="-1" y="563" type="curve" smooth="yes"/>
			<point x="-1" y="521"/>
			<point x="7" y="481"/>
			<point x="24" y="444" type="curve"/>
			<point x="0" y="444" type="line"/>
			<point x="0" y="364" type="line"/>
			<point x="340" y="364" type="line"/>
		</contour>
		<contour>
			<point x="334" y="444" type="curve"/>
			<point x="101" y="444" type="line"/>
			<point x="86" y="471"/>
			<point x="78" y="511"/>
			<point x="78" y="563" type="curve" smooth="yes"/>
			<point x="78" y="643"/>
			<point x="122" y="694"/>
			<point x="197" y="694" type="curve" smooth="yes"/>
			<point x="260" y="694"/>
			<point x="301" y="653"/>
			<point x="320" y="571" type="curve" smooth="yes"/>
			<point x="328" y="533"/>
			<point x="333" y="491"/>
		</contour>
	</outline>
</glyph>
